HIERARCHY
ROOT hip
{
	OFFSET 0.000000 0.000000 0.000000 
	CHANNELS 6 Xposition Yposition Zposition Zrotation Xrotation Yrotation
	JOINT abdomen
	{
		OFFSET 0.000000 3.402643 0.000000 
		CHANNELS 3 Zrotation Xrotation Yrotation
		JOINT chest
		{
			OFFSET 0.000000 8.438565 -0.680529 
			CHANNELS 3 Zrotation Xrotation Yrotation
			JOINT neck
			{
				OFFSET 0.000000 10.207942 -0.272212 
				CHANNELS 3 Zrotation Xrotation Yrotation
				JOINT head
				{
					OFFSET 0.000000 3.130431 0.000000 
					CHANNELS 3 Zrotation Xrotation Yrotation
					End Site
					{
						OFFSET 0.000000 3.130435 0.000000 
					}
				}
			}
			JOINT lCollar
			{
				OFFSET 3.470700 6.669187 -0.816635 
				CHANNELS 3 Zrotation Xrotation Yrotation
				JOINT lShldr
				{
					OFFSET 3.198488 0.000000 0.000000 
					CHANNELS 3 Zrotation Xrotation Yrotation
					JOINT lForeArm
					{
						OFFSET 10.139888 0.000000 0.000000 
						CHANNELS 3 Zrotation Xrotation Yrotation
						JOINT lHand
						{
							OFFSET 8.370511 0.000000 0.000000 
							CHANNELS 3 Zrotation Xrotation Yrotation
							End Site
							{
								OFFSET 4.083176 0.000000 0.000000 
							}
						}
					}
				}
			}
			JOINT rCollar
			{
				OFFSET -3.470700 6.669187 -0.816635 
				CHANNELS 3 Zrotation Xrotation Yrotation
				JOINT rShldr
				{
					OFFSET -3.198488 0.000000 0.000000 
					CHANNELS 3 Zrotation Xrotation Yrotation
					JOINT rForeArm
					{
						OFFSET -10.139888 0.000000 0.000000 
						CHANNELS 3 Zrotation Xrotation Yrotation
						JOINT rHand
						{
							OFFSET -8.370511 0.000000 0.000000 
							CHANNELS 3 Zrotation Xrotation Yrotation
							End Site
							{
								OFFSET -4.083176 0.000000 0.000000 
							}
						}
					}
				}
			}
		}
	}
	JOINT lThigh
	{
		OFFSET 5.308129 -1.633274 1.361059 
		CHANNELS 3 Zrotation Xrotation Yrotation
		JOINT lShin
		{
			OFFSET -2.041588 -20.007561 0.000000 
			CHANNELS 3 Zrotation Xrotation Yrotation
			JOINT lFoot
			{
				OFFSET 0.000000 -19.190928 -1.224953 
				CHANNELS 3 Zrotation Xrotation Yrotation
				End Site
				{
					OFFSET 0.000000 -2.449906 4.627600 
				}
			}
		}
	}
	JOINT rThigh
	{
		OFFSET -5.308129 -1.633274 1.361059 
		CHANNELS 3 Zrotation Xrotation Yrotation
		JOINT rShin
		{
			OFFSET 2.041588 -20.007561 0.000000 
			CHANNELS 3 Zrotation Xrotation Yrotation
			JOINT rFoot
			{
				OFFSET 0.000000 -19.190928 -1.224953 
				CHANNELS 3 Zrotation Xrotation Yrotation
				End Site
				{
					OFFSET 0.000000 -2.449906 4.627600 
				}
			}
		}
	}
}
MOTION
Frames: 16
Frame Time: 0.033333
0.845936 47.234066 -2.812815 -0.195321 -0.527336 -2.296720 -0.000000 -0.000002 -0.000000 -0.371733 3.359306 -13.718453 -6.501964 15.655611 18.470587 -0.954937 -15.993991 -0.145955 -2.000757 -0.069240 1.990978 -79.557983 -6.202405 10.481966 0.716011 10.831400 -10.091600 -21.077665 7.606310 0.985242 1.990970 -0.069577 -2.000746 76.778152 10.233719 0.654950 -2.538766 14.813049 11.308016 21.249130 -7.640185 3.734370 9.096205 -9.563941 14.282064 -3.657370 21.915083 1.330510 -2.398461 -9.048763 -4.954937 -6.477863 -3.092098 2.332816 4.923919 15.122454 1.609221 -3.698363 -16.966518 -13.290923 
0.827530 47.217724 -2.774058 0.019534 0.947255 -2.148760 -0.000000 -0.000002 -0.000000 -0.205760 4.667941 -13.440328 -8.725862 23.001287 18.860470 -0.954937 -15.993991 -0.145955 -2.000757 -0.069240 1.990978 -80.377106 -3.723498 7.975928 0.697605 10.831535 -9.942450 -21.295208 7.093745 2.420907 1.990970 -0.069577 -2.000746 77.874069 9.680936 2.129956 -1.407526 14.969189 6.864740 21.432034 -7.512486 3.851465 8.804586 -10.826458 14.287745 -3.600378 21.033461 1.344497 -2.361929 -8.429571 -4.897856 -6.618275 -4.652392 2.331895 4.890498 15.040880 1.604474 -3.698517 -16.712482 -13.577294 
0.802697 47.184052 -2.725494 0.312872 2.792918 -1.978136 -0.000000 -0.000002 -0.000000 0.029469 6.191408 -13.108641 -11.132975 30.662924 19.508699 -0.954937 -15.993991 -0.145955 -2.000757 -0.069240 1.990978 -79.828102 -2.132519 4.348721 0.712037 10.832920 -10.121452 -21.468737 6.627769 3.667133 1.990970 -0.069577 -2.000746 78.861267 9.072674 3.748129 -0.354106 15.048535 2.679808 21.581776 -7.403924 4.008092 8.437349 -12.460839 14.247189 -3.503304 20.018364 1.322966 -2.312865 -7.684044 -4.726496 -6.800003 -6.533780 2.338092 4.825173 14.774918 1.586595 -3.698232 -16.423515 -13.951372 
0.772089 47.127884 -2.668112 0.637143 4.950867 -1.783504 -0.000000 -0.000002 -0.000000 0.305620 7.880746 -12.746928 -13.164860 36.658989 20.117962 -0.954937 -15.993991 -0.145955 -2.000757 -0.069240 1.990978 -79.029083 -1.386349 0.976848 0.754704 10.830924 -10.399843 -21.527975 6.389537 4.245165 1.990970 -0.069577 -2.000746 79.445641 8.440956 5.291860 0.282143 15.049812 0.192134 21.644590 -7.363068 4.214518 7.970985 -14.278847 14.095599 -3.426851 18.703335 1.358404 -2.308741 -6.788412 -4.547307 -6.879365 -8.574667 2.370192 4.623867 14.221820 1.636691 -3.759317 -15.925250 -14.458171 
0.736348 47.044922 -2.602956 1.004353 7.352390 -1.583449 -0.000000 -0.000002 -0.000000 0.644005 9.716197 -12.364445 -14.209358 39.562843 20.136333 -0.954937 -15.993991 -0.145955 -2.000757 -0.069240 1.990978 -78.810951 -1.269563 -0.547009 0.860425 10.815045 -11.492968 -21.214590 6.609979 3.421226 1.990970 -0.069577 -2.000746 79.411972 7.704113 5.173778 -0.472238 15.045321 3.134851 21.655077 -7.940647 3.845539 7.441749 -16.239086 13.836838 -3.294366 17.137459 1.349689 -2.326994 -5.727989 -4.257646 -7.077705 -10.369132 2.422671 4.339046 12.606531 1.668069 -3.624054 -14.885037 -14.901402 
0.696160 46.932678 -2.531116 1.378024 9.919038 -1.389530 -0.000000 -0.000002 -0.000000 1.007142 11.668173 -11.961349 -14.917585 41.630253 19.909365 -0.954937 -15.993991 -0.145955 -2.000757 -0.069240 1.990978 -78.597145 -1.269500 -1.035409 1.127394 10.757404 -14.006017 -20.658859 6.919391 2.144548 1.990970 -0.069577 -2.000746 79.252831 6.941858 4.476240 -1.593308 14.960546 7.542070 21.495018 -8.560596 4.197234 6.871026 -18.255598 13.454459 -3.159448 15.261792 1.356915 -2.352103 -4.521700 -3.880522 -7.324079 -12.197002 2.504727 4.012927 10.762405 1.695036 -3.488666 -13.766384 -15.401945 
0.652152 46.790333 -2.453591 1.771129 12.591833 -1.206248 -0.000000 -0.000002 -0.000000 1.397339 13.726542 -11.532575 -15.410954 43.346367 19.511173 -0.954937 -15.993991 -0.145955 -2.000757 -0.069240 1.990978 -78.380623 -1.317994 -1.348013 1.429343 10.698040 -16.925884 -20.101349 7.206326 0.885901 1.990970 -0.069577 -2.000746 79.102493 6.071547 3.771185 -2.685679 14.787634 11.883160 21.241409 -9.077958 4.885553 6.248323 -20.288771 12.954934 -3.002221 13.258525 1.416358 -2.419328 -3.269044 -3.486928 -7.660975 -14.363717 2.601861 3.800694 9.421841 1.673618 -3.419800 -12.891998 -15.998249 
0.605017 46.619591 -2.371495 2.166793 15.311813 -1.031071 -0.000000 -0.000002 -0.000000 1.786632 15.842292 -11.122643 -15.700690 44.731087 18.952290 -0.954937 -15.993991 -0.145955 -2.000757 -0.069240 1.990978 -78.154572 -1.415738 -1.592283 1.736835 10.607264 -19.992115 -19.512596 7.480246 -0.443218 1.990970 -0.069577 -2.000746 78.932907 5.139618 3.078797 -3.742389 14.541698 16.185942 20.915882 -9.521035 5.812769 5.613663 -22.326488 12.345196 -2.836285 11.227702 1.392519 -2.504141 -2.018102 -2.931145 -8.002080 -16.379883 2.655766 3.524981 7.735500 1.689690 -3.366708 -11.839994 -16.590664 
0.555375 46.424198 -2.285803 2.546322 17.981422 -0.883784 -0.000000 -0.000002 -0.000000 2.197386 17.995428 -10.708460 -15.777091 45.795685 18.254641 -0.954937 -15.993991 -0.145955 -2.000757 -0.069240 1.990978 -77.949127 -1.561739 -1.787773 2.049881 10.500684 -23.085920 -18.912350 7.778646 -1.902281 1.990970 -0.069577 -2.000746 78.777802 4.234991 2.399133 -4.763039 14.236222 20.378233 20.533127 -9.858761 6.958730 5.012510 -24.322378 11.624891 -2.690191 9.213187 1.444831 -2.609311 -0.788519 -2.394271 -8.349956 -18.196871 2.773299 3.214618 5.698110 1.686874 -2.737487 -9.160606 -17.006832 
0.503920 46.210228 -2.197628 2.920386 20.551659 -0.752549 -0.000000 -0.000002 -0.000000 2.601120 20.176188 -10.291807 -15.654844 46.556767 17.409061 -0.954937 -15.993991 -0.145955 -2.000757 -0.069240 1.990978 -77.746399 -1.766529 -1.973594 2.335402 10.373959 -26.057327 -18.299213 8.100536 -3.472191 1.990970 -0.069577 -2.000746 78.650871 3.299293 1.721603 -5.711380 13.868558 24.387022 20.125692 -10.119018 8.274133 4.364686 -25.935095 10.803169 -2.495321 6.652478 1.478104 -2.743380 0.723658 -1.738183 -8.754269 -20.206152 2.855330 3.025446 4.396974 1.645686 -2.616706 -8.020122 -17.587330 
0.451275 45.985455 -2.107972 3.277348 22.954576 -0.653838 -0.000000 -0.000002 -0.000000 2.977692 22.345812 -9.902040 -15.354936 47.019466 16.455034 -0.954937 -15.993991 -0.145955 -2.000757 -0.069240 1.990978 -77.576134 -2.010647 -2.169307 2.605520 10.252489 -28.858850 -17.700445 8.403754 -5.162989 1.990970 -0.069577 -2.000746 78.549812 2.363055 1.065359 -6.590985 13.457431 28.182434 19.703543 -10.291245 9.728313 3.807249 -27.470957 9.965955 -2.348034 4.391957 1.516749 -2.839140 3.517009 -1.069748 -9.134614 -21.820206 2.920619 2.789633 2.676253 1.616667 -2.467641 -6.764896 -18.079899 
0.398134 45.759079 -2.017933 3.602935 25.122406 -0.593238 -0.000000 -0.000002 -0.000000 3.326818 24.485014 -9.524635 -14.895220 47.198994 15.416430 -0.954937 -15.993991 -0.145955 -2.000757 -0.069240 1.990978 -77.428665 -2.283597 -2.374935 2.852829 10.126028 -31.420280 -17.131676 8.706700 -6.916016 1.990970 -0.069577 -2.000746 78.455704 1.445343 0.439593 -7.386976 13.020919 31.735670 19.277115 -10.387657 11.231337 3.374813 -29.094036 9.184801 -2.245119 2.880955 1.529582 -3.001770 4.835912 -0.428363 -9.532409 -23.443876 2.937468 2.619515 1.507515 1.625777 -2.324989 -5.758810 -18.568937 
0.345138 45.541447 -1.928523 3.890388 26.968019 -0.545717 -0.000000 -0.000002 -0.000000 3.646267 26.535595 -9.169807 -14.337082 47.085445 14.352152 -0.954937 -15.993991 -0.145955 -2.000757 -0.069240 1.990978 -77.305771 -2.595407 -2.610102 3.048382 9.998694 -33.701714 -16.635944 8.990034 -8.652000 1.990970 -0.069577 -2.000746 78.389877 0.546851 -0.126958 -8.096258 12.597077 34.971478 18.869635 -10.427880 12.703474 2.998426 -30.307369 8.459223 -2.155285 1.217621 1.558386 -3.166701 6.169622 0.192475 -9.908816 -24.991673 2.970318 2.540724 0.835991 1.588417 -2.243242 -5.029870 -18.998093 
0.292924 45.343559 -1.840775 4.132055 28.443356 -0.534570 -0.000000 -0.000002 -0.000000 3.945832 28.507393 -8.828308 -13.684071 46.706638 13.281866 -0.954937 -15.993991 -0.145955 -2.000757 -0.069240 1.990978 -77.200134 -2.945437 -2.904232 3.233457 9.891080 -35.666954 -16.232809 9.226803 -10.290802 1.990970 -0.069577 -2.000746 78.365623 -0.312479 -0.644540 -8.708622 12.161623 37.917236 18.494085 -10.425043 14.064956 2.697196 -31.289598 7.865286 -2.048977 -0.060146 1.591286 -3.322271 7.244531 0.712403 -10.183290 -26.174740 2.945735 2.433533 0.146097 1.608939 -2.162124 -4.323393 -19.316345 
0.242188 45.225861 -1.755802 4.332443 29.509735 -0.545326 -0.000000 -0.000002 -0.000000 4.086515 29.537003 -8.677339 -13.458598 46.900196 12.820343 -0.954937 -15.993991 -0.145955 -2.000757 -0.069240 1.990978 -77.198662 -3.335663 -3.042271 3.300482 9.848842 -36.466564 -15.868602 9.490191 -11.972879 1.990970 -0.069577 -2.000746 78.325974 -0.732475 -1.084073 -9.067943 11.873336 39.700127 18.146938 -10.358248 15.294275 2.584970 -32.197861 7.528389 -2.043977 -0.390067 1.558601 -3.459669 7.733947 1.081347 -10.387572 -26.979332 2.942945 2.356368 -0.253007 1.603956 -2.139230 -3.934190 -19.554436 
0.193551 45.172726 -1.674571 4.530586 30.409937 -0.578118 -0.000000 -0.000002 -0.000000 4.115318 29.692163 -8.681757 -13.702690 47.830456 12.968127 -0.954937 -15.993991 -0.145955 -2.000757 -0.069240 1.990978 -77.291779 -3.764125 -3.073042 3.291607 9.855397 -36.288784 -15.501780 9.819201 -13.799790 1.990970 -0.069577 -2.000746 78.280922 -0.771478 -1.474743 -9.239895 11.741081 40.577721 17.740700 -10.264517 16.462206 2.451270 -32.777542 7.238242 -2.020325 -0.790535 1.566887 -3.610733 8.044510 1.404677 -10.545993 -27.701136 2.915114 2.331857 -0.311211 1.632629 -2.111334 -3.783458 -19.695896 
